<svg viewBox="452 258 252 38" version="1.1" xmlns="http://www.w3.org/2000/svg" xmlns:xlink="http://www.w3.org/1999/xlink">
    <!-- Generator: Sketch 41.2 (35397) - http://www.bohemiancoding.com/sketch -->
    <desc>Created with Sketch.</desc>
    <defs>
        <linearGradient x1="0%" y1="0%" id="svg_logo_gradient_colorful">
            <stop stop-color="#92E2D6" offset="0%" stop-opacity="1">
                <animate attributeName="stop-color" values="#92E1D6; #A2E0E7; #A2E0E7; #92E1D6;" repeatCount="indefinite" dur="30s" />
            </stop>
            <stop stop-color="#3DC5D4" offset="100%" stop-opacity="1">
                <animate attributeName="stop-color" values="#0DBDD1; #0DBDD1; #7EDDD0; #0DBDD1;" repeatCount="indefinite" dur="30s" />
            </stop>
        </linearGradient>
    </defs>

    <path d="M46.3965,0.3999 C45.4425,0.3999 44.6955,1.1469 44.6955,2.0999 L44.6955,21.9069 L48.0965,26.1619 L48.0965,2.0999 C48.0965,1.1469 47.3495,0.3999 46.3965,0.3999 M44.8359,30.4819 L21.8999,1.3739 C21.4159,0.7519 20.8749,0.4499 20.2449,0.4499 L19.8449,0.4499 C18.8959,0.4499 18.0939,1.2519 18.0939,2.1999 L18.0939,35.0029 C18.0939,35.9559 18.8409,36.7029 19.7939,36.7029 C20.7479,36.7029 21.4949,35.9559 21.4949,35.0029 L21.4949,6.1479 L44.7449,35.6329 C45.1239,36.1069 45.6549,36.6519 46.3969,36.6519 L46.5959,36.6519 C47.4379,36.6519 48.0969,35.9709 48.0969,35.1019 L48.0969,34.5049 L45.4979,31.2529 L44.8359,30.4819 Z M1.7505,0.6001 C0.8015,0.6001 0.0005,1.4021 0.0005,2.3501 L0.0005,35.1531 C0.0005,36.1011 0.8015,36.9031 1.7505,36.9031 C2.6995,36.9031 3.5005,36.1011 3.5005,35.1531 L3.5005,2.3501 C3.5005,1.4021 2.6995,0.6001 1.7505,0.6001 Z M78.1206,32.0512 L67.0196,32.0512 L67.0196,21.0012 L77.4206,21.0012 C80.6516,21.0012 86.0716,21.6962 86.0716,26.4512 C86.0716,29.9582 83.0996,32.0512 78.1206,32.0512 L78.1206,32.0512 Z M67.0196,5.4492 L77.0196,5.4492 C81.4666,5.4492 84.1206,7.3382 84.1206,10.5002 L84.1206,10.6002 C84.1206,14.1072 81.3546,16.2002 76.7206,16.2002 L67.0196,16.2002 L67.0196,5.4492 Z M84.8746,18.0342 C87.1866,16.6602 89.4206,14.2462 89.4206,10.0502 L89.4206,9.9502 C89.4206,7.6042 88.6026,5.5682 86.9746,3.8842 C84.7706,1.7362 81.4506,0.6002 77.3706,0.6002 L64.4196,0.6002 C63.0096,0.6002 61.8196,1.8132 61.8196,3.2502 L61.8196,34.2522 C61.8196,35.6892 63.0096,36.9032 64.4196,36.9032 L78.0196,36.9032 C86.2556,36.9032 91.3706,32.9932 91.3706,26.6022 C91.3706,22.6032 89.1876,19.7272 84.8746,18.0342 L84.8746,18.0342 Z M125.6201,11.9003 C125.6201,15.8793 122.3421,18.4513 117.2701,18.4513 L107.1691,18.4513 L107.1691,5.5493 L117.3201,5.5493 C122.5951,5.5493 125.6201,7.8283 125.6201,11.8003 L125.6201,11.9003 Z M117.6201,0.6003 L104.5191,0.6003 C103.1091,0.6003 101.9191,1.8133 101.9191,3.2503 L101.9191,34.5023 C101.9191,35.9393 103.1091,37.1523 104.5191,37.1523 C105.9801,37.1523 107.1691,35.9633 107.1691,34.5023 L107.1691,23.3013 L116.2501,23.3013 L125.9001,35.8423 C126.5541,36.7113 127.3511,37.1523 128.2711,37.1523 C129.6581,37.1523 130.9211,35.9123 130.9211,34.5513 C130.9211,33.6843 130.4551,33.0623 130.1341,32.7033 L122.0631,22.3133 C127.7091,20.8883 130.9211,17.0843 130.9211,11.7503 L130.9211,11.6503 C130.9211,8.7683 129.8941,6.1543 128.0311,4.2903 C125.6511,1.9103 121.9531,0.6003 117.6201,0.6003 L117.6201,0.6003 Z M150.2241,22.7504 L157.2691,7.0844 L164.3151,22.7504 L150.2241,22.7504 Z M160.5211,2.3544 C159.9441,0.9444 158.8891,0.1994 157.4691,0.1994 L157.2691,0.1994 C155.8401,0.1994 154.8291,0.8964 154.1781,2.3294 L139.9861,33.3614 C139.7721,33.7914 139.6671,34.2294 139.6671,34.7014 C139.6671,36.0534 140.7671,37.1524 142.1191,37.1524 C143.2491,37.1524 144.1621,36.5134 144.6111,35.4174 L148.0891,27.6514 L166.4511,27.6514 L169.9241,35.3114 C170.4351,36.4804 171.3631,37.1524 172.4701,37.1524 C173.8761,37.1524 175.0211,36.0084 175.0211,34.6024 C175.0211,34.2384 174.9181,33.8154 174.7111,33.3314 L160.5211,2.3544 Z M248.9692,32.0014 L229.6182,32.0014 L229.6182,21.0514 L246.4692,21.0514 C247.8212,21.0514 248.9202,19.9514 248.9202,18.6014 C248.9202,17.2724 247.7972,16.1504 246.4692,16.1504 L229.6182,16.1504 L229.6182,5.5004 L248.7192,5.5004 C250.0712,5.5004 251.1702,4.4004 251.1702,3.0494 C251.1702,1.6994 250.0712,0.6004 248.7192,0.6004 L226.9682,0.6004 C225.5592,0.6004 224.3672,1.8134 224.3672,3.2504 L224.3672,34.2524 C224.3672,35.6894 225.5592,36.9024 226.9682,36.9024 L248.9692,36.9024 C250.3212,36.9024 251.4202,35.8034 251.4202,34.4514 C251.4202,33.1014 250.3212,32.0014 248.9692,32.0014 Z M211.8696,27.7504 C211.2526,27.7504 210.6296,28.0214 210.1806,28.4724 C207.0606,31.3314 204.0826,32.5514 200.2196,32.5514 C192.9846,32.5514 187.3176,26.4894 187.3176,18.7504 L187.3176,18.6504 C187.3176,10.8394 192.8636,4.9494 200.2196,4.9494 C203.8866,4.9494 206.8526,6.1324 209.9086,8.8414 C210.1166,8.9794 210.7486,9.4004 211.5696,9.4004 C212.9816,9.4004 214.2206,8.1854 214.2206,6.8004 C214.2206,6.0294 213.8566,5.2874 213.1836,4.7004 C210.3876,2.3754 206.6646,0.0004 200.2686,0.0004 C189.9786,0.0004 181.9176,8.2364 181.9176,18.7504 L181.9176,18.8514 C181.9176,29.4834 189.7426,37.5024 200.1186,37.5024 C205.4546,37.5024 209.4736,35.9104 213.5426,32.1944 C214.0926,31.7244 214.4206,31.0164 214.4206,30.3014 C214.4206,28.9424 213.2276,27.7504 211.8696,27.7504" id="final_logo_new_colorful" stroke="none" stroke-width="1" fill="url(#svg_logo_gradient_colorful)" fill-rule="evenodd" transform="translate(452.000000, 258.000000)"></path>
</svg>